# xmcd
#
# Track frame offsets:
#	150
#	10786
#	24550
#	39766
#	52902
#	68367
#	78245
#	93179
#	106930
#	118494
#	132993
#	134095
#	134628
#
# Disc length: 1805 seconds
#
# Revision: 1
# Processed by: cddbd v1.5.2PL0 Copyright (c) Steve Scherf et al.
# Submitted via: audiograbber 1.83.01
#
DISCID=a7070b0d
DTITLE=Various Artist - Hillcrest #06
DYEAR=1900
DGENRE=Country
TTITLE0=Kevin Banford - Guitars, Guns God and Girls
TTITLE1=Gary Fjellgaard - Dancing In The Grass
TTITLE2=Ronnie Masters - Where Can I Go
TTITLE3=Saskia Munroe - I Could Fly
TTITLE4=Brad Kepler - Toodle oo Bad Luck Blues
TTITLE5=Ray Meyers - Old Time Schotische (instrumental)
TTITLE6=Barry Laporte - A Special Love
TTITLE7=Chantelle Ashby - I Didn't Fall In Love
TTITLE8=Dale McKay - To Mend A Broken Heart
TTITLE9=Tony Wait - The Condo Song
TTITLE10=Gary Fjellgaard - Liner
TTITLE11=Ronnie Masters - New Single Liner
TTITLE12=Chantelle Ashby - New Single Liner
EXTD=
EXTT0=
EXTT1=
EXTT2=
EXTT3=
EXTT4=
EXTT5=
EXTT6=
EXTT7=
EXTT8=
EXTT9=
EXTT10=
EXTT11=
EXTT12=
PLAYORDER=
